{"glyphs":{"0":{"ha":1033,"x_min":15,"x_max":1017,"o":"m 15 488 q 55 678 15 589 q 162 835 94 768 q 320 940 229 901 q 515 979 411 979 q 711 940 619 979 q 870 835 803 901 q 977 678 938 768 q 1017 488 1017 589 q 977 297 1017 386 q 870 140 938 207 q 711 35 803 74 q 515 -3 619 -3 q 320 35 411 -3 q 162 140 229 74 q 55 297 94 207 q 15 488 15 386 m 57 479 q 93 306 57 388 q 191 163 129 224 q 336 66 253 101 q 514 31 419 31 q 692 66 608 31 q 839 163 776 101 q 938 306 901 224 q 974 479 974 388 q 938 654 974 572 q 839 797 901 736 q 692 894 776 858 q 514 929 608 929 q 336 894 419 929 q 191 797 253 858 q 93 654 129 736 q 57 479 57 572 m 249 479 q 269 581 249 533 q 326 663 290 628 q 411 719 363 699 q 514 740 460 740 q 617 719 568 740 q 703 663 667 699 q 760 581 739 628 q 782 479 782 533 q 760 378 782 425 q 703 295 739 331 q 617 240 667 260 q 514 219 568 219 q 411 240 460 219 q 326 295 363 260 q 269 378 290 331 q 249 479 249 425 m 296 479 q 313 396 296 435 q 360 328 331 357 q 430 282 390 299 q 514 265 469 265 q 599 282 560 265 q 669 328 639 299 q 717 396 700 357 q 735 479 735 435 q 717 563 735 524 q 669 631 700 601 q 599 677 639 660 q 514 694 560 694 q 430 677 469 694 q 360 631 390 660 q 313 563 331 601 q 296 479 296 524 m 318 479 q 333 555 318 519 q 376 616 349 590 q 438 657 403 642 q 514 672 474 672 q 590 657 554 672 q 653 616 626 642 q 697 555 681 590 q 713 479 713 519 q 697 404 713 439 q 653 344 681 369 q 590 303 626 318 q 514 288 554 288 q 438 303 474 288 q 376 344 403 318 q 333 404 349 369 q 318 479 318 439 m 368 479 q 380 424 368 450 q 411 378 392 397 q 458 347 431 358 q 514 336 485 336 q 572 347 544 336 q 619 378 599 358 q 651 424 639 397 q 663 479 663 450 q 651 535 663 508 q 619 581 639 561 q 572 613 599 601 q 514 624 544 624 q 458 613 485 624 q 411 581 431 601 q 380 535 392 561 q 368 479 368 508 z "},"1":{"ha":361,"x_min":14,"x_max":347,"o":"m 99 946 l 347 972 l 347 21 l 319 0 l 99 0 l 71 21 l 71 543 l 14 543 l 99 946 m 78 592 l 119 592 l 119 49 l 299 49 l 299 922 l 133 903 l 78 592 z "},"2":{"ha":1047,"x_min":14,"x_max":1033,"o":"m 440 483 l 526 483 l 554 463 l 554 301 l 997 301 l 1025 281 l 1025 21 l 997 0 l 15 0 l 440 483 m 506 435 l 463 435 l 136 49 l 976 49 l 976 253 l 506 253 l 506 435 m 14 499 q 24 593 14 542 q 57 697 33 644 q 119 799 81 750 q 213 887 157 849 q 347 948 269 925 q 524 971 424 971 q 703 948 625 971 q 838 887 781 925 q 932 799 894 849 q 992 698 969 750 q 1024 594 1014 646 q 1033 499 1033 542 l 739 499 q 718 611 739 569 q 666 676 697 653 q 597 706 635 699 q 524 713 558 713 q 466 703 503 713 q 394 671 429 694 q 333 606 358 647 q 307 499 307 564 l 14 499 m 250 547 q 319 672 274 628 q 410 735 364 715 q 524 761 464 758 q 639 735 585 758 q 727 672 683 715 q 789 547 771 628 l 982 547 q 946 676 971 621 q 886 771 921 731 q 812 838 851 811 q 732 882 772 865 q 524 922 638 921 q 322 886 415 924 q 242 843 282 869 q 167 776 203 817 q 104 678 132 735 q 63 547 76 622 l 250 547 z "},"3":{"ha":1035,"x_min":14,"x_max":1022,"o":"m 14 243 l 42 264 l 556 264 q 622 280 588 264 q 686 323 657 296 q 734 387 715 350 q 753 465 753 424 l 1022 465 q 982 280 1022 365 q 877 133 942 194 q 731 35 813 71 q 568 0 650 0 l 42 0 l 14 21 l 14 243 m 788 417 q 776 374 788 401 q 735 312 764 347 q 656 249 706 276 q 532 215 607 222 l 63 215 l 63 49 l 519 49 q 669 66 604 49 q 785 119 735 83 q 869 197 835 154 q 926 283 904 240 q 958 364 949 326 q 968 417 968 401 l 788 417 m 78 743 l 478 743 l 478 514 l 582 514 l 974 849 l 974 924 l 78 924 l 78 743 m 29 951 l 57 972 l 994 972 l 1022 951 l 1022 826 l 600 465 l 457 465 l 429 486 l 429 694 l 57 694 l 29 715 l 29 951 z "},"4":{"ha":976,"x_min":14,"x_max":963,"o":"m 611 318 l 63 318 l 63 397 l 426 718 l 531 718 l 531 497 l 611 497 l 611 318 m 660 525 l 632 546 l 579 546 l 579 746 l 551 767 l 408 767 l 14 415 l 14 290 l 42 269 l 632 269 l 660 290 l 660 525 m 681 944 l 708 972 l 935 972 l 963 944 l 963 21 l 935 0 l 708 0 l 681 21 l 681 486 l 681 944 m 729 49 l 914 49 l 914 924 l 729 924 l 729 49 z "},"5":{"ha":1036,"x_min":14,"x_max":1022,"o":"m 944 924 l 76 924 l 76 613 l 336 613 l 336 746 l 944 746 l 944 924 m 993 718 l 965 697 l 385 697 l 385 585 l 357 564 l 56 564 l 28 585 l 28 951 l 56 972 l 965 972 l 993 951 l 993 718 m 14 243 l 42 264 l 556 264 q 622 280 588 264 q 686 323 657 296 q 734 387 715 350 q 753 465 753 424 l 1022 465 q 982 280 1022 365 q 877 133 942 194 q 731 35 813 71 q 568 0 650 0 l 42 0 l 14 21 l 14 243 m 788 417 q 776 374 788 401 q 735 312 764 347 q 656 249 706 276 q 532 215 607 222 l 63 215 l 63 49 l 519 49 q 669 66 604 49 q 785 119 735 83 q 869 197 835 154 q 926 283 904 240 q 958 364 949 326 q 968 417 968 401 l 788 417 z "},"6":{"ha":1047,"x_min":14,"x_max":1033,"o":"m 794 728 l 767 707 l 14 707 q 37 797 14 750 q 101 883 60 844 q 197 947 142 922 q 314 972 251 972 l 767 972 l 794 951 l 794 728 m 307 924 q 210 901 253 924 q 137 848 167 879 q 92 790 107 817 q 76 756 76 763 l 746 756 l 746 924 l 307 924 m 14 656 l 793 656 q 977 608 921 656 q 1033 482 1033 561 l 1033 290 q 955 66 1033 132 q 753 0 876 0 l 308 0 q 71 89 128 0 q 14 292 14 178 l 14 656 m 63 289 q 114 129 63 210 q 311 49 165 49 l 750 49 q 852 64 811 49 q 919 102 893 79 q 958 153 944 125 q 978 208 972 182 q 984 257 983 235 q 985 289 985 279 l 985 479 q 928 574 985 540 q 767 607 872 607 l 372 607 q 263 607 317 607 q 168 607 210 607 q 94 607 126 607 q 63 607 63 607 l 63 289 m 175 324 q 183 365 175 349 q 219 389 190 381 q 306 401 249 397 q 464 404 364 404 q 730 401 674 404 q 819 389 786 397 q 866 365 853 381 q 879 324 879 349 q 869 283 879 299 q 828 260 858 268 q 740 251 797 253 q 464 250 682 250 q 306 252 364 250 q 219 262 249 254 q 183 284 190 269 q 175 324 175 299 m 232 326 q 238 313 232 318 q 267 304 243 307 q 337 301 290 301 q 467 300 383 300 q 719 301 672 300 q 789 304 765 301 q 819 313 813 307 q 826 326 826 318 q 817 340 826 335 q 783 349 808 346 q 713 353 758 353 q 467 354 667 354 q 335 353 382 354 q 265 349 288 353 q 237 340 242 346 q 232 326 232 335 z "},"7":{"ha":969,"x_min":14,"x_max":956,"o":"m 42 694 l 14 715 l 14 951 l 42 972 l 956 972 l 842 694 l 42 694 m 804 743 l 879 924 l 63 924 l 63 743 l 804 743 m 835 678 l 521 0 l 168 0 q 492 678 268 207 l 835 678 m 246 49 l 492 49 l 757 628 l 526 628 l 246 49 z "},"8":{"ha":1064,"x_min":14,"x_max":1050,"o":"m 254 656 l 810 656 q 994 608 938 656 q 1050 482 1050 561 l 1050 290 q 1039 161 1050 215 q 997 71 1028 107 q 912 17 967 35 q 769 0 857 0 l 294 0 q 152 17 207 0 q 67 71 97 35 q 25 161 36 107 q 14 290 14 215 l 14 482 q 70 608 14 561 q 254 656 126 656 m 297 49 l 767 49 q 941 90 881 49 q 1001 289 1001 132 l 1001 479 q 940 576 1001 546 q 811 607 878 607 l 253 607 q 116 576 169 607 q 63 479 63 546 l 63 289 q 126 90 63 132 q 297 49 189 49 m 1033 707 l 31 707 q 53 797 31 750 q 117 883 76 844 q 213 947 158 922 q 331 972 268 972 l 733 972 q 851 947 796 972 q 947 883 906 922 q 1010 797 988 844 q 1033 707 1033 750 m 351 924 q 180 858 250 924 q 110 756 110 793 l 967 756 q 889 860 968 796 q 713 924 810 924 l 351 924 m 504 404 q 746 400 701 403 q 836 389 803 397 q 883 365 869 381 q 896 324 896 349 q 885 283 896 299 q 844 260 875 268 q 756 251 814 253 q 504 250 710 250 q 303 251 353 250 q 219 260 250 253 q 178 283 189 268 q 168 324 168 299 q 181 365 168 349 q 228 389 194 381 q 313 400 261 397 q 504 404 361 403 m 735 300 q 806 304 782 301 q 836 313 829 307 q 843 326 843 318 q 834 340 843 335 q 800 349 825 346 q 729 353 775 353 q 506 354 692 354 q 329 353 371 354 q 264 349 289 353 q 230 340 239 346 q 221 326 221 335 q 228 313 221 318 q 258 304 235 307 q 324 301 282 301 q 506 300 367 300 l 735 300 z "},"9":{"ha":1047,"x_min":14,"x_max":1033,"o":"m 253 244 l 281 265 l 1033 265 q 1010 175 1033 222 q 947 89 988 128 q 851 25 906 50 q 733 0 796 0 l 281 0 l 253 21 l 253 244 m 740 49 q 838 71 794 49 q 910 124 881 93 q 956 183 940 156 q 971 217 971 210 l 301 217 l 301 49 l 740 49 m 1033 317 l 254 317 q 70 364 126 317 q 14 490 14 411 l 14 682 q 92 906 14 840 q 294 972 171 972 l 739 972 q 976 883 919 972 q 1033 681 1033 794 l 1033 317 m 985 683 q 933 843 985 763 q 736 924 882 924 l 297 924 q 195 908 236 924 q 128 870 154 893 q 89 819 103 847 q 69 764 75 790 q 63 715 64 738 q 63 683 63 693 l 63 493 q 119 399 63 432 q 281 365 175 365 l 675 365 q 784 365 731 365 q 879 365 838 365 q 953 365 921 365 q 985 365 985 365 l 985 683 m 872 649 q 865 608 872 624 q 828 583 857 592 q 741 572 799 575 q 583 568 683 568 q 317 572 374 568 q 228 583 261 575 q 181 608 194 592 q 168 649 168 624 q 178 689 168 674 q 219 712 189 704 q 308 721 250 719 q 583 722 365 722 q 741 720 683 722 q 828 710 799 718 q 865 688 857 703 q 872 649 872 674 m 815 646 q 810 660 815 654 q 781 668 804 665 q 710 672 757 671 q 581 672 664 672 q 328 672 375 672 q 258 668 282 671 q 228 660 235 665 q 221 646 221 654 q 230 632 221 638 q 264 623 239 626 q 335 619 289 619 q 581 618 381 618 q 713 619 665 618 q 783 623 760 619 q 810 632 806 626 q 815 646 815 638 z "}," ":{"ha":694,"x_min":0,"x_max":0,"o":""},"C":{"ha":889,"x_min":14,"x_max":875,"o":"m 875 703 l 490 703 q 416 688 447 703 q 355 642 385 674 q 310 572 325 611 q 294 482 294 533 q 310 400 294 439 q 355 330 325 361 q 416 284 385 299 q 490 269 447 269 l 875 269 l 875 21 l 846 0 l 478 0 q 317 36 410 0 q 158 138 224 72 q 53 293 92 204 q 14 482 14 382 q 53 679 14 590 q 158 834 92 768 q 317 936 224 900 q 478 972 410 972 l 846 972 l 875 951 l 875 703 m 64 482 q 110 288 64 379 q 162 210 132 249 q 235 137 192 171 q 341 78 279 103 q 485 49 403 53 l 825 49 l 825 221 l 493 221 q 353 268 404 229 q 271 365 301 307 q 246 482 246 419 q 271 607 246 553 q 353 704 301 665 q 493 751 404 743 l 825 751 l 825 924 l 485 924 q 341 894 403 919 q 235 835 279 869 q 162 763 192 801 q 110 685 132 724 q 64 482 64 593 z "},"T":{"ha":1069,"x_min":14,"x_max":1069,"o":"m 14 939 l 44 972 l 365 972 l 396 939 l 396 735 l 365 701 l 44 701 l 14 735 l 14 939 m 63 750 l 347 750 l 347 924 l 63 924 l 63 750 m 1069 701 l 758 701 q 735 679 735 701 l 735 33 l 703 0 l 485 0 l 454 33 l 454 715 q 481 812 454 765 q 545 894 507 858 q 624 951 583 929 q 701 972 665 972 l 1069 972 l 1069 701 m 729 924 q 631 899 671 924 q 557 835 590 874 q 513 763 524 797 q 503 699 503 729 l 503 49 l 685 49 l 685 683 q 690 705 685 693 q 704 726 696 717 q 723 743 713 736 q 746 750 733 750 l 1021 750 l 1021 924 l 729 924 z "},"R":{"ha":1079,"x_min":14,"x_max":1067,"o":"m 28 588 l 58 621 l 278 621 l 308 588 l 308 33 l 278 0 l 58 0 l 28 33 l 28 588 m 76 49 l 260 49 l 260 572 l 76 572 l 76 49 m 1065 621 q 1063 602 1065 621 q 1051 555 1061 583 q 1022 492 1042 526 q 969 428 1003 458 q 885 376 936 399 q 764 347 833 354 l 1065 54 l 1065 0 l 753 0 l 358 406 l 358 588 l 389 621 l 1065 621 m 407 421 l 778 49 l 1000 49 l 649 396 l 753 396 q 880 428 832 401 q 957 489 928 456 q 1001 572 992 528 l 407 572 l 407 421 m 14 972 l 769 972 q 887 947 832 972 q 983 885 942 922 q 1045 801 1024 849 q 1065 701 1067 754 l 14 701 l 14 750 l 14 972 m 1001 750 q 988 792 1001 768 q 941 848 974 817 q 869 899 908 879 q 760 924 829 919 l 63 924 l 63 750 l 1001 750 z "},"P":{"ha":1065,"x_min":14,"x_max":1067,"o":"m 14 588 l 44 621 l 264 621 l 294 588 l 294 33 l 264 0 l 44 0 l 14 33 l 14 588 m 63 49 l 246 49 l 246 572 l 63 572 l 63 49 m 1051 621 q 1049 602 1051 621 q 1038 555 1047 583 q 1008 492 1028 526 q 956 428 989 458 q 873 376 922 399 q 749 347 824 353 l 375 347 l 344 381 l 344 588 l 375 621 l 1051 621 m 393 396 l 739 396 q 866 428 818 401 q 943 489 914 456 q 988 572 978 528 l 393 572 l 393 396 m 14 972 l 769 972 q 887 947 832 972 q 983 885 942 922 q 1045 801 1024 849 q 1065 701 1067 754 l 14 701 l 14 750 l 14 972 m 1001 750 q 988 792 1001 768 q 941 848 974 817 q 869 899 908 879 q 760 924 829 919 l 63 924 l 63 750 l 1001 750 z "},"H":{"ha":876,"x_min":14,"x_max":861,"o":"m 833 972 l 861 951 l 861 21 l 833 0 l 607 0 l 579 21 l 579 353 l 296 353 l 296 21 l 268 0 l 42 0 l 14 21 l 14 625 l 579 625 l 579 951 l 607 972 l 833 972 m 628 924 l 628 576 l 63 576 l 63 49 l 247 49 l 247 401 l 628 401 l 628 49 l 813 49 l 813 924 l 628 924 m 14 701 q 17 772 14 742 q 30 838 21 803 q 60 902 39 872 q 115 951 81 932 q 203 972 150 971 l 296 972 l 296 722 l 268 701 l 14 701 m 247 938 q 158 926 179 935 q 120 904 136 918 q 94 874 104 890 q 76 839 83 857 q 63 750 61 796 l 247 750 l 247 938 z "},"J":{"ha":657,"x_min":14,"x_max":643,"o":"m 44 269 l 343 269 l 364 288 l 364 939 l 394 972 l 613 972 l 643 939 l 643 257 q 617 160 643 207 q 552 78 590 114 q 472 22 514 43 q 396 0 429 0 l 44 0 l 14 33 l 14 236 l 44 269 m 63 49 l 368 49 q 465 76 422 50 q 535 137 507 103 q 579 206 564 171 q 594 274 594 242 l 594 924 l 413 924 l 413 289 q 390 240 411 257 q 351 221 369 222 l 63 221 l 63 49 z "},"I":{"ha":310,"x_min":14,"x_max":296,"o":"m 14 944 l 42 972 l 268 972 l 296 944 l 296 21 l 268 0 l 42 0 l 14 21 l 14 486 l 14 944 m 63 49 l 247 49 l 247 924 l 63 924 l 63 49 z "},"Q":{"ha":1072,"x_min":14,"x_max":1058,"o":"m 769 0 l 736 32 q 785 53 754 36 q 848 96 815 69 q 912 156 881 122 q 964 229 943 190 l 1058 163 l 1058 33 l 1028 0 l 769 0 m 1010 139 l 976 161 q 956 134 971 151 q 927 101 942 117 q 898 72 913 85 q 865 49 883 58 l 1010 49 l 1010 139 m 14 486 q 53 675 14 586 q 159 829 93 764 q 315 933 225 894 q 510 972 406 972 q 703 933 613 972 q 860 829 794 894 q 966 675 926 764 q 1006 486 1006 586 q 966 296 1006 385 q 860 142 926 207 q 703 38 794 76 q 510 0 613 0 q 315 38 406 0 q 159 142 225 76 q 53 296 93 207 q 14 486 14 385 m 64 486 q 99 317 64 397 q 195 177 135 236 q 338 83 256 118 q 511 49 419 49 q 685 83 603 49 q 829 177 768 118 q 926 317 890 236 q 961 486 961 397 q 926 656 961 575 q 829 795 890 736 q 685 889 768 854 q 511 924 603 924 q 338 889 419 924 q 195 795 256 854 q 99 656 135 736 q 64 486 64 575 m 247 479 q 268 581 247 533 q 325 663 289 628 q 410 719 361 699 q 513 740 458 740 q 616 719 567 740 q 701 663 665 699 q 759 581 738 628 q 781 479 781 533 q 759 378 781 425 q 701 295 738 331 q 616 240 665 260 q 513 219 567 219 q 410 240 458 219 q 325 295 361 260 q 268 378 289 331 q 247 479 247 425 m 296 479 q 313 397 296 435 q 360 331 331 360 q 430 285 390 301 q 514 268 469 268 q 597 285 557 268 q 667 331 636 301 q 715 397 697 360 q 732 479 732 435 q 715 561 732 524 q 667 628 697 599 q 597 674 636 657 q 514 692 557 692 q 430 674 469 692 q 360 628 390 657 q 313 561 331 599 q 296 479 296 524 z "},"L":{"ha":657,"x_min":14,"x_max":643,"o":"m 643 236 l 643 33 l 613 0 l 261 0 q 185 22 228 0 q 105 78 143 43 q 40 160 67 114 q 14 257 14 207 l 14 939 l 44 972 l 263 972 l 293 939 l 293 288 l 314 269 l 613 269 l 643 236 m 594 221 l 306 221 q 267 240 288 222 q 244 289 246 257 l 244 924 l 63 924 l 63 274 q 78 206 63 242 q 122 137 93 171 q 192 76 150 103 q 289 49 235 50 l 594 49 l 594 221 z "},"F":{"ha":935,"x_min":14,"x_max":921,"o":"m 42 701 l 14 722 l 14 951 l 42 972 l 893 972 l 921 951 l 921 722 l 893 701 l 42 701 m 872 750 l 872 924 l 63 924 l 63 750 l 872 750 m 829 625 l 42 625 l 14 604 l 14 21 l 42 0 l 268 0 l 296 21 l 296 347 l 531 347 q 651 374 601 350 q 734 428 701 399 q 785 492 767 458 q 814 555 804 526 q 829 625 824 583 m 63 576 l 765 576 q 722 488 753 526 q 647 426 694 454 q 525 396 600 397 l 247 396 l 247 49 l 63 49 l 63 576 z "},"E":{"ha":935,"x_min":14,"x_max":921,"o":"m 829 625 l 42 625 l 14 604 l 14 21 l 42 0 l 892 0 l 921 21 l 921 236 l 893 269 l 296 269 l 296 347 l 535 347 q 655 374 604 351 q 738 427 706 397 q 800 515 771 457 q 829 625 829 574 m 63 576 l 765 576 q 724 492 756 533 q 647 426 692 451 q 529 396 603 400 l 247 396 l 247 221 l 872 221 l 872 49 l 63 49 l 63 576 m 42 701 l 14 722 l 14 951 l 42 972 l 893 972 l 921 951 l 921 722 l 893 701 l 42 701 m 872 750 l 872 924 l 63 924 l 63 750 l 872 750 z "},"D":{"ha":876,"x_min":14,"x_max":863,"o":"m 14 264 l 394 264 q 475 283 439 264 q 538 331 511 301 q 578 401 564 361 q 592 482 592 440 q 578 563 592 524 q 538 634 564 603 q 475 683 511 665 q 394 703 439 700 l 296 703 l 296 417 l 14 417 l 14 951 l 42 972 l 410 972 q 600 924 515 972 q 745 804 685 876 q 834 653 806 732 q 863 488 863 574 q 822 290 863 372 q 716 141 781 207 q 570 38 651 75 q 407 0 489 0 l 42 0 l 14 21 l 14 264 m 63 465 l 247 465 l 247 747 l 410 747 q 507 718 465 744 q 578 651 549 692 q 622 566 608 611 q 635 485 635 521 q 613 364 636 419 q 587 317 603 340 q 547 274 571 294 q 490 240 522 254 q 413 221 457 226 l 63 221 l 63 49 l 400 49 q 537 78 478 53 q 640 137 596 103 q 715 210 685 171 q 764 288 744 249 q 814 488 810 379 q 772 680 815 597 q 665 817 728 763 q 535 898 603 872 q 417 924 467 924 l 63 924 l 63 465 z "},"ÿ":{"ha":1157,"x_min":0,"x_max":0,"o":""},"M":{"ha":1035,"x_min":14,"x_max":1019,"o":"m 971 49 l 971 924 l 892 924 l 572 560 l 572 456 l 789 456 l 789 49 l 971 49 m 771 0 l 740 33 l 740 407 l 554 407 l 524 440 l 524 578 l 876 972 l 989 972 l 1019 939 l 1019 33 l 989 0 l 771 0 m 244 49 l 244 456 l 461 456 l 461 560 l 142 924 l 63 924 l 63 49 l 244 49 m 44 0 l 14 33 l 14 939 l 44 972 l 157 972 l 510 578 l 510 440 l 479 407 l 293 407 l 293 33 l 263 0 l 44 0 z "},"W":{"ha":1033,"x_min":14,"x_max":1019,"o":"m 63 924 l 63 49 l 142 49 l 461 413 l 461 517 l 244 517 l 244 924 l 63 924 m 263 972 l 293 939 l 293 565 l 479 565 l 510 532 l 510 394 l 157 0 l 44 0 l 14 33 l 14 939 l 44 972 l 263 972 m 789 924 l 789 517 l 572 517 l 572 413 l 892 49 l 971 49 l 971 924 l 789 924 m 989 972 l 1019 939 l 1019 33 l 989 0 l 876 0 l 524 394 l 524 532 l 554 565 l 740 565 l 740 939 l 771 972 l 989 972 z "},"G":{"ha":889,"x_min":14,"x_max":875,"o":"m 875 703 l 490 703 q 416 688 447 703 q 355 642 385 674 q 310 572 325 611 q 294 482 294 533 q 310 400 294 439 q 355 330 325 361 q 416 284 385 299 q 490 269 447 269 l 875 269 l 875 21 l 846 0 l 478 0 q 317 36 410 0 q 158 138 224 72 q 53 293 92 204 q 14 482 14 382 q 53 679 14 590 q 158 834 92 768 q 317 936 224 900 q 478 972 410 972 l 846 972 l 875 951 l 875 703 m 64 482 q 110 288 64 379 q 162 210 132 249 q 235 137 192 171 q 341 78 279 103 q 485 49 403 53 l 825 49 l 825 221 l 493 221 q 353 268 404 229 q 271 365 301 307 q 246 482 246 419 q 271 607 246 553 q 353 704 301 665 q 493 751 404 743 l 825 751 l 825 924 l 485 924 q 341 894 403 919 q 235 835 279 869 q 162 763 192 801 q 110 685 132 724 q 64 482 64 593 m 403 507 q 409 465 403 489 q 430 410 415 440 q 472 350 444 381 q 552 303 499 319 q 674 288 606 288 l 875 288 l 781 507 l 403 507 m 789 336 l 674 336 q 558 357 613 336 q 475 458 503 378 l 736 458 l 789 336 z "},"B":{"ha":1033,"x_min":14,"x_max":1031,"o":"m 1026 625 q 996 513 1026 565 q 931 430 965 460 q 843 374 897 400 q 719 347 789 347 l 719 299 q 890 266 835 299 q 982 171 944 233 q 1019 56 1019 108 l 1019 0 l 42 0 l 14 21 l 14 625 l 296 625 l 296 299 l 532 299 l 532 347 l 375 347 l 375 625 l 1026 625 m 424 576 l 424 396 l 576 396 l 576 250 l 247 250 l 247 576 l 63 576 l 63 49 l 972 49 q 953 126 972 83 q 884 213 933 168 q 665 253 835 257 l 665 396 q 827 424 767 396 q 919 486 888 451 q 971 576 957 526 l 424 576 m 14 951 l 42 974 l 731 974 q 848 949 793 974 q 944 885 903 924 q 1008 795 985 846 q 1031 701 1031 744 l 14 701 l 14 951 m 738 924 l 63 924 l 63 750 l 968 750 q 915 842 953 806 q 835 901 878 879 q 738 924 793 924 z "},":":{"ha":310,"x_min":14,"x_max":296,"o":"m 296 132 l 268 111 l 42 111 l 14 132 l 14 363 l 42 383 l 268 383 l 296 363 l 296 132 m 247 335 l 63 335 l 63 160 l 247 160 l 247 335 m 296 465 l 268 444 l 42 444 l 14 465 l 14 696 l 42 717 l 268 717 l 296 696 l 296 465 m 247 668 l 63 668 l 63 493 l 247 493 l 247 668 z "},"=":{"ha":751,"x_min":14,"x_max":738,"o":"m 42 439 l 14 460 l 14 654 l 42 675 l 710 675 l 738 654 l 738 460 l 710 439 l 467 439 l 42 439 m 689 488 l 689 626 l 63 626 l 63 488 l 689 488 m 42 161 l 14 182 l 14 376 l 42 397 l 710 397 l 738 376 l 738 182 l 710 161 l 467 161 l 42 161 m 689 210 l 689 349 l 63 349 l 63 210 l 689 210 z "},"U":{"ha":836,"x_min":14,"x_max":822,"o":"m 311 272 l 525 272 l 543 288 l 543 939 l 574 972 l 792 972 l 822 939 l 822 257 q 796 160 822 207 q 732 78 769 114 q 652 22 694 43 q 576 0 610 0 l 263 0 q 187 22 229 0 q 106 78 144 43 q 42 160 68 114 q 14 257 15 207 l 14 939 l 44 972 l 263 972 l 293 939 l 293 288 l 311 272 m 549 49 q 649 74 607 50 q 720 133 692 99 q 761 204 749 167 q 774 274 774 242 l 774 924 l 592 924 l 592 289 q 572 240 592 257 q 532 224 551 224 l 307 224 q 266 240 288 224 q 244 288 244 257 l 244 924 l 63 924 l 63 274 q 78 205 64 242 q 121 134 92 168 q 191 75 150 100 q 290 49 232 50 l 549 49 z "},"V":{"ha":858,"x_min":14,"x_max":844,"o":"m 68 924 l 353 49 l 506 49 l 697 674 l 513 674 l 479 556 l 385 556 l 249 924 l 68 924 m 279 972 l 415 604 l 443 604 l 482 722 l 761 722 l 550 33 l 524 0 l 335 0 l 310 33 l 14 939 l 50 972 l 279 972 m 485 739 q 499 801 490 776 q 524 857 507 826 q 570 913 540 888 q 645 956 600 939 q 754 972 690 974 l 844 972 l 765 739 l 485 739 m 779 924 l 754 924 q 636 901 674 922 q 576 850 599 879 q 543 788 553 821 l 733 788 l 779 924 z "},"S":{"ha":1036,"x_min":14,"x_max":1022,"o":"m 14 231 l 44 264 l 556 264 q 688 326 622 264 q 753 465 753 388 l 1022 465 q 982 280 1022 365 q 877 133 942 194 q 731 35 813 71 q 568 0 650 0 l 44 0 l 14 33 l 14 231 m 797 417 q 714 283 786 351 q 532 215 642 215 l 63 215 l 63 49 l 519 49 q 677 65 619 47 q 785 119 735 83 q 871 197 835 154 q 929 283 907 240 q 961 359 951 326 q 971 417 971 392 l 797 417 m 1022 735 l 992 701 l 481 701 q 349 643 414 701 q 283 507 283 585 l 14 507 q 54 692 14 607 q 159 840 94 778 q 305 937 224 901 q 468 972 386 972 l 992 972 l 1022 939 l 1022 735 m 239 556 q 322 685 250 621 q 504 750 394 750 l 974 750 l 974 924 l 517 924 q 359 907 417 925 q 251 853 301 889 q 165 775 201 818 q 107 689 129 732 q 75 613 85 646 q 65 556 65 581 l 239 556 z "},"K":{"ha":893,"x_min":14,"x_max":879,"o":"m 14 944 l 42 972 l 268 972 l 296 944 l 296 701 l 14 701 l 14 944 m 63 750 l 247 750 l 247 924 l 63 924 l 63 750 m 879 972 l 669 549 l 669 429 l 879 0 l 543 0 l 383 353 l 296 353 l 296 21 l 268 0 l 42 0 l 14 21 l 14 625 l 383 625 l 543 972 l 879 972 m 572 924 l 419 576 l 63 576 l 63 49 l 247 49 l 247 401 l 419 401 l 572 49 l 803 49 l 615 429 l 614 549 l 801 924 l 572 924 z "},"Y":{"ha":858,"x_min":14,"x_max":844,"o":"m 68 924 l 290 244 l 290 49 l 554 49 l 554 244 l 697 674 l 513 674 l 479 556 l 385 556 l 249 924 l 68 924 m 279 972 l 415 604 l 443 604 l 482 722 l 761 722 l 603 244 l 603 33 l 576 0 l 267 0 l 242 33 l 242 244 l 14 939 l 50 972 l 279 972 m 485 739 q 499 801 490 776 q 524 857 507 826 q 570 913 540 888 q 645 956 600 939 q 754 972 690 974 l 844 972 l 765 739 l 485 739 m 779 924 l 754 924 q 636 901 674 922 q 576 850 599 879 q 543 788 553 821 l 733 788 l 779 924 z "},"X":{"ha":883,"x_min":14,"x_max":869,"o":"m 50 0 l 14 33 l 200 488 l 14 939 l 50 972 l 279 972 l 428 592 l 435 592 l 442 592 l 492 721 l 715 721 l 765 721 l 669 488 l 856 33 l 819 0 l 590 0 l 442 364 l 435 364 l 428 364 l 279 0 l 50 0 m 249 49 l 400 413 l 435 413 l 469 413 l 621 49 l 801 49 l 621 488 l 693 672 l 522 672 l 469 550 l 435 550 l 400 550 l 249 924 l 68 924 l 249 488 l 68 49 l 249 49 m 499 738 q 501 755 499 738 q 513 798 504 772 q 538 854 521 824 q 585 910 556 885 q 660 953 615 936 q 769 972 706 971 l 869 972 l 769 736 l 731 736 l 611 736 q 568 736 589 736 q 532 736 547 736 q 507 737 517 736 q 499 738 497 738 m 794 924 l 775 924 q 666 905 703 924 q 601 856 629 886 q 564 776 572 819 l 643 776 l 732 776 l 794 924 z "},"p":{"ha":1065,"x_min":14,"x_max":1067,"o":"m 14 588 l 44 621 l 264 621 l 294 588 l 294 33 l 264 0 l 44 0 l 14 33 l 14 588 m 63 49 l 246 49 l 246 572 l 63 572 l 63 49 m 1051 621 q 1049 602 1051 621 q 1038 555 1047 583 q 1008 492 1028 526 q 956 428 989 458 q 873 376 922 399 q 749 347 824 353 l 375 347 l 344 381 l 344 588 l 375 621 l 1051 621 m 393 396 l 739 396 q 866 428 818 401 q 943 489 914 456 q 988 572 978 528 l 393 572 l 393 396 m 14 972 l 769 972 q 887 947 832 972 q 983 885 942 922 q 1045 801 1024 849 q 1065 701 1067 754 l 14 701 l 14 750 l 14 972 m 1001 750 q 988 792 1001 768 q 941 848 974 817 q 869 899 908 879 q 760 924 829 919 l 63 924 l 63 750 l 1001 750 z "},"q":{"ha":1072,"x_min":14,"x_max":1058,"o":"m 769 0 l 736 32 q 785 53 754 36 q 848 96 815 69 q 912 156 881 122 q 964 229 943 190 l 1058 163 l 1058 33 l 1028 0 l 769 0 m 1010 139 l 976 161 q 956 134 971 151 q 927 101 942 117 q 898 72 913 85 q 865 49 883 58 l 1010 49 l 1010 139 m 14 486 q 53 675 14 586 q 159 829 93 764 q 315 933 225 894 q 510 972 406 972 q 703 933 613 972 q 860 829 794 894 q 966 675 926 764 q 1006 486 1006 586 q 966 296 1006 385 q 860 142 926 207 q 703 38 794 76 q 510 0 613 0 q 315 38 406 0 q 159 142 225 76 q 53 296 93 207 q 14 486 14 385 m 64 486 q 99 317 64 397 q 195 177 135 236 q 338 83 256 118 q 511 49 419 49 q 685 83 603 49 q 829 177 768 118 q 926 317 890 236 q 961 486 961 397 q 926 656 961 575 q 829 795 890 736 q 685 889 768 854 q 511 924 603 924 q 338 889 419 924 q 195 795 256 854 q 99 656 135 736 q 64 486 64 575 m 247 479 q 268 581 247 533 q 325 663 289 628 q 410 719 361 699 q 513 740 458 740 q 616 719 567 740 q 701 663 665 699 q 759 581 738 628 q 781 479 781 533 q 759 378 781 425 q 701 295 738 331 q 616 240 665 260 q 513 219 567 219 q 410 240 458 219 q 325 295 361 260 q 268 378 289 331 q 247 479 247 425 m 296 479 q 313 397 296 435 q 360 331 331 360 q 430 285 390 301 q 514 268 469 268 q 597 285 557 268 q 667 331 636 301 q 715 397 697 360 q 732 479 732 435 q 715 561 732 524 q 667 628 697 599 q 597 674 636 657 q 514 692 557 692 q 430 674 469 692 q 360 628 390 657 q 313 561 331 599 q 296 479 296 524 z "},"r":{"ha":1076,"x_min":14,"x_max":1067,"o":"m 28 588 l 58 621 l 278 621 l 308 588 l 308 33 l 278 0 l 58 0 l 28 33 l 28 588 m 76 49 l 260 49 l 260 572 l 76 572 l 76 49 m 1065 621 q 1063 602 1065 621 q 1051 555 1061 583 q 1022 492 1042 526 q 969 428 1003 458 q 885 376 936 399 q 764 347 833 354 l 1065 54 l 1065 0 l 753 0 l 358 406 l 358 588 l 389 621 l 1065 621 m 407 421 l 778 49 l 1000 49 l 649 396 l 753 396 q 880 428 832 401 q 957 489 928 456 q 1001 572 992 528 l 407 572 l 407 421 m 14 972 l 769 972 q 887 947 832 972 q 983 885 942 922 q 1045 801 1024 849 q 1065 701 1067 754 l 14 701 l 14 750 l 14 972 m 1001 750 q 988 792 1001 768 q 941 848 974 817 q 869 899 908 879 q 760 924 829 919 l 63 924 l 63 750 l 1001 750 z "},"s":{"ha":1042,"x_min":14,"x_max":1022,"o":"m 14 231 l 44 264 l 556 264 q 688 326 622 264 q 753 465 753 388 l 1022 465 q 982 280 1022 365 q 877 133 942 194 q 731 35 813 71 q 568 0 650 0 l 44 0 l 14 33 l 14 231 m 797 417 q 714 283 786 351 q 532 215 642 215 l 63 215 l 63 49 l 519 49 q 677 65 619 47 q 785 119 735 83 q 871 197 835 154 q 929 283 907 240 q 961 359 951 326 q 971 417 971 392 l 797 417 m 1022 735 l 992 701 l 481 701 q 349 643 414 701 q 283 507 283 585 l 14 507 q 54 692 14 607 q 159 840 94 778 q 305 937 224 901 q 468 972 386 972 l 992 972 l 1022 939 l 1022 735 m 239 556 q 322 685 250 621 q 504 750 394 750 l 974 750 l 974 924 l 517 924 q 359 907 417 925 q 251 853 301 889 q 165 775 201 818 q 107 689 129 732 q 75 613 85 646 q 65 556 65 581 l 239 556 z "},"t":{"ha":1069,"x_min":14,"x_max":1069,"o":"m 14 939 l 44 972 l 365 972 l 396 939 l 396 735 l 365 701 l 44 701 l 14 735 l 14 939 m 63 750 l 347 750 l 347 924 l 63 924 l 63 750 m 1069 701 l 758 701 q 735 679 735 701 l 735 33 l 703 0 l 485 0 l 454 33 l 454 715 q 481 812 454 765 q 545 894 507 858 q 624 951 583 929 q 701 972 665 972 l 1069 972 l 1069 701 m 729 924 q 631 899 671 924 q 557 835 590 874 q 513 763 524 797 q 503 699 503 729 l 503 49 l 685 49 l 685 683 q 690 705 685 693 q 704 726 696 717 q 723 743 713 736 q 746 750 733 750 l 1021 750 l 1021 924 l 729 924 z "},"u":{"ha":836,"x_min":14,"x_max":822,"o":"m 311 272 l 525 272 l 543 288 l 543 939 l 574 972 l 792 972 l 822 939 l 822 257 q 796 160 822 207 q 732 78 769 114 q 652 22 694 43 q 576 0 610 0 l 263 0 q 187 22 229 0 q 106 78 144 43 q 42 160 68 114 q 14 257 15 207 l 14 939 l 44 972 l 263 972 l 293 939 l 293 288 l 311 272 m 549 49 q 649 74 607 50 q 720 133 692 99 q 761 204 749 167 q 774 274 774 242 l 774 924 l 592 924 l 592 289 q 572 240 592 257 q 532 224 551 224 l 307 224 q 266 240 288 224 q 244 288 244 257 l 244 924 l 63 924 l 63 274 q 78 205 64 242 q 121 134 92 168 q 191 75 150 100 q 290 49 232 50 l 549 49 z "},"v":{"ha":858,"x_min":14,"x_max":844,"o":"m 68 924 l 353 49 l 506 49 l 697 674 l 513 674 l 479 556 l 385 556 l 249 924 l 68 924 m 279 972 l 415 604 l 443 604 l 482 722 l 761 722 l 550 33 l 524 0 l 335 0 l 310 33 l 14 939 l 50 972 l 279 972 m 485 739 q 499 801 490 776 q 524 857 507 826 q 570 913 540 888 q 645 956 600 939 q 754 972 690 974 l 844 972 l 765 739 l 485 739 m 779 924 l 754 924 q 636 901 674 922 q 576 850 599 879 q 543 788 553 821 l 733 788 l 779 924 z "},"w":{"ha":1033,"x_min":14,"x_max":1019,"o":"m 63 924 l 63 49 l 142 49 l 461 413 l 461 517 l 244 517 l 244 924 l 63 924 m 263 972 l 293 939 l 293 565 l 479 565 l 510 532 l 510 394 l 157 0 l 44 0 l 14 33 l 14 939 l 44 972 l 263 972 m 789 924 l 789 517 l 572 517 l 572 413 l 892 49 l 971 49 l 971 924 l 789 924 m 989 972 l 1019 939 l 1019 33 l 989 0 l 876 0 l 524 394 l 524 532 l 554 565 l 740 565 l 740 939 l 771 972 l 989 972 z "},"x":{"ha":883,"x_min":14,"x_max":869,"o":"m 50 0 l 14 33 l 200 488 l 14 939 l 50 972 l 279 972 l 428 592 l 435 592 l 442 592 l 492 721 l 715 721 l 765 721 l 669 488 l 856 33 l 819 0 l 590 0 l 442 364 l 435 364 l 428 364 l 279 0 l 50 0 m 249 49 l 400 413 l 435 413 l 469 413 l 621 49 l 801 49 l 621 488 l 693 672 l 522 672 l 469 550 l 435 550 l 400 550 l 249 924 l 68 924 l 249 488 l 68 49 l 249 49 m 499 738 q 501 755 499 738 q 513 798 504 772 q 538 854 521 824 q 585 910 556 885 q 660 953 615 936 q 769 972 706 971 l 869 972 l 769 736 l 731 736 l 611 736 q 568 736 589 736 q 532 736 547 736 q 507 737 517 736 q 499 738 497 738 m 794 924 l 775 924 q 666 905 703 924 q 601 856 629 886 q 564 776 572 819 l 643 776 l 732 776 l 794 924 z "},"y":{"ha":858,"x_min":14,"x_max":844,"o":"m 68 924 l 290 244 l 290 49 l 554 49 l 554 244 l 697 674 l 513 674 l 479 556 l 385 556 l 249 924 l 68 924 m 279 972 l 415 604 l 443 604 l 482 722 l 761 722 l 603 244 l 603 33 l 576 0 l 267 0 l 242 33 l 242 244 l 14 939 l 50 972 l 279 972 m 485 739 q 499 801 490 776 q 524 857 507 826 q 570 913 540 888 q 645 956 600 939 q 754 972 690 974 l 844 972 l 765 739 l 485 739 m 779 924 l 754 924 q 636 901 674 922 q 576 850 599 879 q 543 788 553 821 l 733 788 l 779 924 z "},"o":{"ha":1028,"x_min":14,"x_max":1006,"o":"m 14 486 q 53 675 14 586 q 159 829 93 764 q 315 933 225 894 q 510 972 406 972 q 703 933 613 972 q 860 829 794 894 q 966 675 926 764 q 1006 486 1006 586 q 966 296 1006 385 q 860 142 926 207 q 703 38 794 76 q 510 0 613 0 q 315 38 406 0 q 159 142 225 76 q 53 296 93 207 q 14 486 14 385 m 64 486 q 99 317 64 397 q 195 177 135 236 q 338 83 256 118 q 511 49 419 49 q 685 83 603 49 q 829 177 768 118 q 926 317 890 236 q 961 486 961 397 q 926 656 961 575 q 829 795 890 736 q 685 889 768 854 q 511 924 603 924 q 338 889 419 924 q 195 795 256 854 q 99 656 135 736 q 64 486 64 575 m 247 479 q 268 581 247 533 q 325 663 289 628 q 410 719 361 699 q 513 740 458 740 q 616 719 567 740 q 701 663 665 699 q 759 581 738 628 q 781 479 781 533 q 759 378 781 425 q 701 295 738 331 q 616 240 665 260 q 513 219 567 219 q 410 240 458 219 q 325 295 361 260 q 268 378 289 331 q 247 479 247 425 m 296 479 q 313 397 296 435 q 360 331 331 360 q 430 285 390 301 q 514 268 469 268 q 597 285 557 268 q 667 331 636 301 q 715 397 697 360 q 732 479 732 435 q 715 561 732 524 q 667 628 697 599 q 597 674 636 657 q 514 692 557 692 q 430 674 469 692 q 360 628 390 657 q 313 561 331 599 q 296 479 296 524 z "},"a":{"ha":868,"x_min":14,"x_max":854,"o":"m 256 49 l 390 417 l 482 417 l 525 300 l 685 300 l 474 924 l 410 924 l 79 49 l 256 49 m 14 0 l 379 972 l 506 972 l 750 251 l 492 251 l 451 368 l 422 368 l 288 0 l 14 0 m 382 236 l 756 236 l 854 0 l 653 0 q 505 33 574 -3 q 408 128 436 68 q 382 236 379 188 m 725 188 q 435 188 725 188 q 478 116 454 144 q 542 68 503 88 q 651 49 581 49 l 785 49 l 725 188 z "},"b":{"ha":1033,"x_min":14,"x_max":1031,"o":"m 1026 625 q 996 513 1026 565 q 931 430 965 460 q 843 374 897 400 q 719 347 789 347 l 719 299 q 890 266 835 299 q 982 171 944 233 q 1019 56 1019 108 l 1019 0 l 42 0 l 14 21 l 14 625 l 296 625 l 296 299 l 532 299 l 532 347 l 375 347 l 375 625 l 1026 625 m 424 576 l 424 396 l 576 396 l 576 250 l 247 250 l 247 576 l 63 576 l 63 49 l 972 49 q 953 126 972 83 q 884 213 933 168 q 665 253 835 257 l 665 396 q 827 424 767 396 q 919 486 888 451 q 971 576 957 526 l 424 576 m 14 951 l 42 974 l 731 974 q 848 949 793 974 q 944 885 903 924 q 1008 795 985 846 q 1031 701 1031 744 l 14 701 l 14 951 m 738 924 l 63 924 l 63 750 l 968 750 q 915 842 953 806 q 835 901 878 879 q 738 924 793 924 z "},"c":{"ha":889,"x_min":14,"x_max":875,"o":"m 875 703 l 490 703 q 416 688 447 703 q 355 642 385 674 q 310 572 325 611 q 294 482 294 533 q 310 400 294 439 q 355 330 325 361 q 416 284 385 299 q 490 269 447 269 l 875 269 l 875 21 l 846 0 l 478 0 q 317 36 410 0 q 158 138 224 72 q 53 293 92 204 q 14 482 14 382 q 53 679 14 590 q 158 834 92 768 q 317 936 224 900 q 478 972 410 972 l 846 972 l 875 951 l 875 703 m 64 482 q 110 288 64 379 q 162 210 132 249 q 235 137 192 171 q 341 78 279 103 q 485 49 403 53 l 825 49 l 825 221 l 493 221 q 353 268 404 229 q 271 365 301 307 q 246 482 246 419 q 271 607 246 553 q 353 704 301 665 q 493 751 404 743 l 825 751 l 825 924 l 485 924 q 341 894 403 919 q 235 835 279 869 q 162 763 192 801 q 110 685 132 724 q 64 482 64 593 z "},"d":{"ha":876,"x_min":14,"x_max":863,"o":"m 14 264 l 394 264 q 475 283 439 264 q 538 331 511 301 q 578 401 564 361 q 592 482 592 440 q 578 563 592 524 q 538 634 564 603 q 475 683 511 665 q 394 703 439 700 l 296 703 l 296 417 l 14 417 l 14 951 l 42 972 l 410 972 q 600 924 515 972 q 745 804 685 876 q 834 653 806 732 q 863 488 863 574 q 822 290 863 372 q 716 141 781 207 q 570 38 651 75 q 407 0 489 0 l 42 0 l 14 21 l 14 264 m 63 465 l 247 465 l 247 747 l 410 747 q 507 718 465 744 q 578 651 549 692 q 622 566 608 611 q 635 485 635 521 q 613 364 636 419 q 587 317 603 340 q 547 274 571 294 q 490 240 522 254 q 413 221 457 226 l 63 221 l 63 49 l 400 49 q 537 78 478 53 q 640 137 596 103 q 715 210 685 171 q 764 288 744 249 q 814 488 810 379 q 772 680 815 597 q 665 817 728 763 q 535 898 603 872 q 417 924 467 924 l 63 924 l 63 465 z "},"e":{"ha":935,"x_min":14,"x_max":921,"o":"m 829 625 l 42 625 l 14 604 l 14 21 l 42 0 l 892 0 l 921 21 l 921 236 l 893 269 l 296 269 l 296 347 l 535 347 q 655 374 604 351 q 738 427 706 397 q 800 515 771 457 q 829 625 829 574 m 63 576 l 765 576 q 724 492 756 533 q 647 426 692 451 q 529 396 603 400 l 247 396 l 247 221 l 872 221 l 872 49 l 63 49 l 63 576 m 42 701 l 14 722 l 14 951 l 42 972 l 893 972 l 921 951 l 921 722 l 893 701 l 42 701 m 872 750 l 872 924 l 63 924 l 63 750 l 872 750 z "},"f":{"ha":935,"x_min":14,"x_max":921,"o":"m 42 701 l 14 722 l 14 951 l 42 972 l 893 972 l 921 951 l 921 722 l 893 701 l 42 701 m 872 750 l 872 924 l 63 924 l 63 750 l 872 750 m 829 625 l 42 625 l 14 604 l 14 21 l 42 0 l 268 0 l 296 21 l 296 347 l 531 347 q 651 374 601 350 q 734 428 701 399 q 785 492 767 458 q 814 555 804 526 q 829 625 824 583 m 63 576 l 765 576 q 722 488 753 526 q 647 426 694 454 q 525 396 600 397 l 247 396 l 247 49 l 63 49 l 63 576 z "},"g":{"ha":889,"x_min":14,"x_max":875,"o":"m 875 703 l 490 703 q 416 688 447 703 q 355 642 385 674 q 310 572 325 611 q 294 482 294 533 q 310 400 294 439 q 355 330 325 361 q 416 284 385 299 q 490 269 447 269 l 875 269 l 875 21 l 846 0 l 478 0 q 317 36 410 0 q 158 138 224 72 q 53 293 92 204 q 14 482 14 382 q 53 679 14 590 q 158 834 92 768 q 317 936 224 900 q 478 972 410 972 l 846 972 l 875 951 l 875 703 m 64 482 q 110 288 64 379 q 162 210 132 249 q 235 137 192 171 q 341 78 279 103 q 485 49 403 53 l 825 49 l 825 221 l 493 221 q 353 268 404 229 q 271 365 301 307 q 246 482 246 419 q 271 607 246 553 q 353 704 301 665 q 493 751 404 743 l 825 751 l 825 924 l 485 924 q 341 894 403 919 q 235 835 279 869 q 162 763 192 801 q 110 685 132 724 q 64 482 64 593 m 403 507 q 409 465 403 489 q 430 410 415 440 q 472 350 444 381 q 552 303 499 319 q 674 288 606 288 l 875 288 l 781 507 l 403 507 m 789 336 l 674 336 q 558 357 613 336 q 475 458 503 378 l 736 458 l 789 336 z "},"h":{"ha":876,"x_min":14,"x_max":861,"o":"m 833 972 l 861 951 l 861 21 l 833 0 l 607 0 l 579 21 l 579 353 l 296 353 l 296 21 l 268 0 l 42 0 l 14 21 l 14 625 l 579 625 l 579 951 l 607 972 l 833 972 m 628 924 l 628 576 l 63 576 l 63 49 l 247 49 l 247 401 l 628 401 l 628 49 l 813 49 l 813 924 l 628 924 m 14 701 q 17 772 14 742 q 30 838 21 803 q 60 902 39 872 q 115 951 81 932 q 203 972 150 971 l 296 972 l 296 722 l 268 701 l 14 701 m 247 938 q 158 926 179 935 q 120 904 136 918 q 94 874 104 890 q 76 839 83 857 q 63 750 61 796 l 247 750 l 247 938 z "},"i":{"ha":310,"x_min":14,"x_max":296,"o":"m 14 944 l 42 972 l 268 972 l 296 944 l 296 21 l 268 0 l 42 0 l 14 21 l 14 486 l 14 944 m 63 49 l 247 49 l 247 924 l 63 924 l 63 49 z "},"j":{"ha":657,"x_min":14,"x_max":643,"o":"m 44 269 l 343 269 l 364 288 l 364 939 l 394 972 l 613 972 l 643 939 l 643 257 q 617 160 643 207 q 552 78 590 114 q 472 22 514 43 q 396 0 429 0 l 44 0 l 14 33 l 14 236 l 44 269 m 63 49 l 368 49 q 465 76 422 50 q 535 137 507 103 q 579 206 564 171 q 594 274 594 242 l 594 924 l 413 924 l 413 289 q 390 240 411 257 q 351 221 369 222 l 63 221 l 63 49 z "},"k":{"ha":893,"x_min":14,"x_max":879,"o":"m 14 944 l 42 972 l 268 972 l 296 944 l 296 701 l 14 701 l 14 944 m 63 750 l 247 750 l 247 924 l 63 924 l 63 750 m 879 972 l 669 549 l 669 429 l 879 0 l 543 0 l 383 353 l 296 353 l 296 21 l 268 0 l 42 0 l 14 21 l 14 625 l 383 625 l 543 972 l 879 972 m 572 924 l 419 576 l 63 576 l 63 49 l 247 49 l 247 401 l 419 401 l 572 49 l 803 49 l 615 429 l 614 549 l 801 924 l 572 924 z "},"l":{"ha":657,"x_min":14,"x_max":643,"o":"m 643 236 l 643 33 l 613 0 l 261 0 q 185 22 228 0 q 105 78 143 43 q 40 160 67 114 q 14 257 14 207 l 14 939 l 44 972 l 263 972 l 293 939 l 293 288 l 314 269 l 613 269 l 643 236 m 594 221 l 306 221 q 267 240 288 222 q 244 289 246 257 l 244 924 l 63 924 l 63 274 q 78 206 63 242 q 122 137 93 171 q 192 76 150 103 q 289 49 235 50 l 594 49 l 594 221 z "},"m":{"ha":1033,"x_min":14,"x_max":1019,"o":"m 971 49 l 971 924 l 892 924 l 572 560 l 572 456 l 789 456 l 789 49 l 971 49 m 771 0 l 740 33 l 740 407 l 554 407 l 524 440 l 524 578 l 876 972 l 989 972 l 1019 939 l 1019 33 l 989 0 l 771 0 m 244 49 l 244 456 l 461 456 l 461 560 l 142 924 l 63 924 l 63 49 l 244 49 m 44 0 l 14 33 l 14 939 l 44 972 l 157 972 l 510 578 l 510 440 l 479 407 l 293 407 l 293 33 l 263 0 l 44 0 z "},"n":{"ha":1033,"x_min":14,"x_max":1019,"o":"m 244 49 l 244 443 l 461 443 l 461 560 l 142 924 l 63 924 l 63 49 l 244 49 m 44 0 l 14 33 l 14 939 l 44 972 l 157 972 l 510 578 l 510 428 l 479 394 l 293 394 l 293 33 l 263 0 l 44 0 m 789 924 l 789 529 l 572 529 l 572 413 l 892 49 l 971 49 l 971 924 l 789 924 m 989 972 l 1019 939 l 1019 33 l 989 0 l 876 0 l 524 394 l 524 544 l 554 578 l 740 578 l 740 939 l 771 972 l 989 972 z "},"Z":{"ha":1000,"x_min":14,"x_max":986,"o":"m 938 221 l 531 221 l 531 429 l 426 429 l 63 122 l 63 47 l 938 47 l 938 221 m 986 29 l 953 0 l 47 0 l 14 29 l 14 138 l 408 476 l 546 476 l 579 446 l 579 268 l 953 268 l 986 239 l 986 29 m 63 753 l 469 753 l 469 543 l 574 543 l 938 851 l 938 928 l 63 928 l 63 753 m 14 944 l 47 972 l 953 972 l 986 944 l 986 836 l 592 497 l 454 497 l 421 528 l 421 706 l 47 706 l 14 735 l 14 944 z "},"z":{"ha":1000,"x_min":14,"x_max":986,"o":"m 938 221 l 531 221 l 531 429 l 426 429 l 63 122 l 63 47 l 938 47 l 938 221 m 986 29 l 953 0 l 47 0 l 14 29 l 14 138 l 408 476 l 546 476 l 579 446 l 579 268 l 953 268 l 986 239 l 986 29 m 63 753 l 469 753 l 469 543 l 574 543 l 938 851 l 938 928 l 63 928 l 63 753 m 14 944 l 47 972 l 953 972 l 986 944 l 986 836 l 592 497 l 454 497 l 421 528 l 421 706 l 47 706 l 14 735 l 14 944 z "},"N":{"ha":1033,"x_min":14,"x_max":1019,"o":"m 244 49 l 244 443 l 461 443 l 461 560 l 142 924 l 63 924 l 63 49 l 244 49 m 44 0 l 14 33 l 14 939 l 44 972 l 157 972 l 510 578 l 510 428 l 479 394 l 293 394 l 293 33 l 263 0 l 44 0 m 789 924 l 789 529 l 572 529 l 572 413 l 892 49 l 971 49 l 971 924 l 789 924 m 989 972 l 1019 939 l 1019 33 l 989 0 l 876 0 l 524 394 l 524 544 l 554 578 l 740 578 l 740 939 l 771 972 l 989 972 z "},"O":{"ha":1019,"x_min":14,"x_max":1006,"o":"m 14 486 q 53 675 14 586 q 159 829 93 764 q 315 933 225 894 q 510 972 406 972 q 703 933 613 972 q 860 829 794 894 q 966 675 926 764 q 1006 486 1006 586 q 966 296 1006 385 q 860 142 926 207 q 703 38 794 76 q 510 0 613 0 q 315 38 406 0 q 159 142 225 76 q 53 296 93 207 q 14 486 14 385 m 64 486 q 99 317 64 397 q 195 177 135 236 q 338 83 256 118 q 511 49 419 49 q 685 83 603 49 q 829 177 768 118 q 926 317 890 236 q 961 486 961 397 q 926 656 961 575 q 829 795 890 736 q 685 889 768 854 q 511 924 603 924 q 338 889 419 924 q 195 795 256 854 q 99 656 135 736 q 64 486 64 575 m 247 479 q 268 581 247 533 q 325 663 289 628 q 410 719 361 699 q 513 740 458 740 q 616 719 567 740 q 701 663 665 699 q 759 581 738 628 q 781 479 781 533 q 759 378 781 425 q 701 295 738 331 q 616 240 665 260 q 513 219 567 219 q 410 240 458 219 q 325 295 361 260 q 268 378 289 331 q 247 479 247 425 m 296 479 q 313 397 296 435 q 360 331 331 360 q 430 285 390 301 q 514 268 469 268 q 597 285 557 268 q 667 331 636 301 q 715 397 697 360 q 732 479 732 435 q 715 561 732 524 q 667 628 697 599 q 597 674 636 657 q 514 692 557 692 q 430 674 469 692 q 360 628 390 657 q 313 561 331 599 q 296 479 296 524 z "},";":{"ha":310,"x_min":14,"x_max":296,"o":"m 296 354 l 268 333 l 42 333 l 14 354 l 14 585 l 42 606 l 268 606 l 296 585 l 296 354 m 247 557 l 63 557 l 63 382 l 247 382 l 247 557 m 14 -151 l 14 132 l 42 160 l 268 160 l 296 132 l 296 54 q 245 -60 296 -15 q 151 -124 194 -104 q 84 -147 108 -143 q 14 -151 60 -151 m 63 111 l 63 -94 q 167 -56 101 -90 q 247 68 247 -8 l 247 111 l 63 111 z "},",":{"ha":271,"x_min":14,"x_max":257,"o":"m 14 -151 l 14 132 l 42 160 l 229 160 l 257 132 l 257 54 q 210 -67 257 -15 q 136 -131 164 -119 q 84 -147 108 -143 q 14 -151 60 -151 m 63 111 l 63 -94 q 136 -71 101 -90 q 208 68 208 -8 l 208 111 l 63 111 z "},".":{"ha":268,"x_min":14,"x_max":254,"o":"m 254 21 l 226 0 l 42 0 l 14 21 l 14 196 l 42 217 l 226 217 l 254 196 l 254 21 m 206 168 l 63 168 l 63 49 l 206 49 l 206 168 z "},"-":{"ha":751,"x_min":14,"x_max":738,"o":"m 42 254 l 14 275 l 14 469 l 42 490 l 710 490 l 738 469 l 738 275 l 710 254 l 467 254 l 42 254 m 689 303 l 689 442 l 63 442 l 63 303 l 689 303 z "},"!":{"ha":310,"x_min":14,"x_max":296,"o":"m 42 321 l 14 342 l 14 951 l 42 972 l 268 972 l 296 951 l 296 342 l 268 321 l 42 321 m 247 369 l 247 924 l 63 924 l 63 369 l 247 369 m 296 21 l 268 0 l 42 0 l 14 21 l 14 251 l 42 272 l 268 272 l 296 251 l 296 21 m 247 224 l 63 224 l 63 49 l 247 49 l 247 224 z "},"'":{"ha":271,"x_min":14,"x_max":257,"o":"m 14 619 l 14 944 l 42 972 l 229 972 l 257 944 l 257 867 q 235 751 257 797 q 188 678 213 706 q 136 640 164 651 q 84 624 108 628 q 14 619 60 619 m 63 924 l 63 676 q 136 700 101 681 q 194 778 179 738 q 208 881 208 818 l 208 924 l 63 924 z "},"\"":{"ha":549,"x_min":14,"x_max":535,"o":"m 14 619 l 14 944 l 42 972 l 229 972 l 257 944 l 257 867 q 235 751 257 797 q 188 678 213 706 q 136 640 164 651 q 84 624 108 628 q 14 619 60 619 m 63 924 l 63 676 q 136 700 101 681 q 194 778 179 738 q 208 881 208 818 l 208 924 l 63 924 m 292 619 l 292 944 l 319 972 l 507 972 l 535 944 l 535 867 q 513 751 535 797 q 466 678 490 706 q 414 640 442 651 q 362 624 386 628 q 292 619 338 619 m 340 924 l 340 676 q 414 700 379 681 q 472 778 457 738 q 486 881 486 818 l 486 924 l 340 924 z "},"˝":{"ha":569,"x_min":22,"x_max":540,"o":"m 24 619 q 23 631 24 618 q 22 665 22 643 q 22 713 22 686 q 22 768 22 740 l 22 919 l 65 969 l 265 969 l 265 867 q 243 751 265 797 q 197 678 221 706 q 144 640 172 651 q 92 623 117 628 q 46 619 68 618 q 24 619 24 619 m 68 914 l 68 796 l 68 676 q 144 700 110 681 q 174 724 160 710 q 198 758 188 738 q 215 808 208 779 q 222 874 222 836 l 222 914 l 68 914 m 299 619 q 298 631 299 618 q 297 665 297 643 q 297 713 297 686 q 297 768 297 740 l 297 919 l 340 969 l 540 969 l 540 867 q 518 751 540 797 q 472 678 496 706 q 419 640 447 651 q 367 623 392 628 q 321 619 343 618 q 299 619 299 619 m 343 914 l 343 796 l 343 676 q 419 700 385 681 q 449 724 435 710 q 473 758 463 738 q 490 808 483 779 q 497 874 497 836 l 497 914 l 343 914 z "},"\\":{"ha":781,"x_min":14,"x_max":767,"o":"m 96 924 l 497 49 l 681 49 l 261 924 l 96 924 m 294 972 l 767 0 l 464 0 l 14 972 l 294 972 z "},"/":{"ha":781,"x_min":14,"x_max":767,"o":"m 519 924 l 100 49 l 283 49 l 685 924 l 519 924 m 767 972 l 317 0 l 14 0 l 486 972 l 767 972 z "},"%":{"ha":1104,"x_min":28,"x_max":1090,"o":"m 715 924 l 199 49 l 382 49 l 881 924 l 715 924 m 963 972 l 415 0 l 113 0 l 682 972 l 963 972 m 28 758 q 46 844 28 804 q 94 915 64 885 q 165 962 124 944 q 253 979 206 979 q 341 962 300 979 q 413 915 382 944 q 460 844 443 885 q 478 758 478 804 q 460 672 478 713 q 413 602 443 632 q 341 555 382 572 q 253 538 300 538 q 165 555 206 538 q 94 602 124 572 q 46 672 64 632 q 28 758 28 713 m 71 754 q 85 685 71 718 q 124 629 100 653 q 182 592 149 606 q 251 578 215 578 q 322 592 289 578 q 379 629 354 606 q 418 685 404 653 q 432 754 432 718 q 418 823 432 790 q 379 880 404 856 q 322 918 354 904 q 251 932 289 932 q 182 918 215 932 q 124 880 149 904 q 85 823 100 856 q 71 754 71 790 m 133 754 q 142 800 133 779 q 167 837 151 821 q 206 863 183 853 q 251 872 228 872 q 299 863 276 872 q 337 837 321 853 q 363 800 353 821 q 372 754 372 779 q 363 709 372 731 q 337 672 353 688 q 299 647 321 656 q 251 638 276 638 q 206 647 228 638 q 167 672 183 656 q 142 709 151 688 q 133 754 133 731 m 178 754 q 184 726 178 739 q 200 703 190 713 q 224 688 210 693 q 251 682 238 682 q 281 688 268 682 q 305 703 294 693 q 322 726 315 713 q 328 754 328 739 q 322 783 328 769 q 305 806 315 796 q 281 822 294 817 q 251 828 268 828 q 224 822 238 828 q 200 806 210 817 q 184 783 190 796 q 178 754 178 769 m 640 260 q 658 346 640 306 q 706 416 676 386 q 777 463 736 446 q 865 481 818 481 q 953 463 913 481 q 1025 416 994 446 q 1073 346 1056 386 q 1090 260 1090 306 q 1073 174 1090 214 q 1025 103 1056 133 q 953 56 994 74 q 865 39 913 39 q 777 56 818 39 q 706 103 736 74 q 658 174 676 133 q 640 260 640 214 m 683 256 q 698 187 683 219 q 737 131 713 154 q 794 93 761 107 q 864 79 828 79 q 934 93 901 79 q 992 131 967 107 q 1031 187 1017 154 q 1044 256 1044 219 q 1031 324 1044 292 q 992 381 1017 357 q 934 419 967 406 q 864 433 901 433 q 794 419 828 433 q 737 381 761 406 q 698 324 713 357 q 683 256 683 292 m 746 256 q 755 301 746 281 q 780 338 764 322 q 818 364 796 354 q 864 374 840 374 q 911 364 889 374 q 949 338 933 354 q 975 301 965 322 q 985 256 985 281 q 975 210 985 232 q 949 173 965 189 q 911 148 933 157 q 864 139 889 139 q 818 148 840 139 q 780 173 796 157 q 755 210 764 189 q 746 256 746 232 m 790 256 q 797 227 790 240 q 813 204 803 214 q 836 189 822 194 q 864 183 850 183 q 894 189 881 183 q 917 204 907 194 q 934 227 928 214 q 940 256 940 240 q 934 284 940 271 q 917 308 928 297 q 894 324 907 318 q 864 329 881 329 q 836 324 850 329 q 813 308 822 318 q 797 284 803 297 q 790 256 790 271 z "},"©":{"ha":1028,"x_min":13,"x_max":1014,"o":"m 13 488 q 52 678 13 589 q 159 835 92 768 q 317 940 226 901 q 513 979 408 979 q 708 940 617 979 q 867 835 800 901 q 974 678 935 768 q 1014 488 1014 589 q 974 297 1014 386 q 867 140 935 207 q 708 35 800 74 q 513 -3 617 -3 q 317 35 408 -3 q 159 140 226 74 q 52 297 92 207 q 13 488 13 386 m 54 479 q 90 306 54 388 q 188 163 126 224 q 333 66 250 101 q 511 31 417 31 q 690 66 606 31 q 836 163 774 101 q 935 306 899 224 q 971 479 971 388 q 935 654 971 572 q 836 797 899 736 q 690 894 774 858 q 511 929 606 929 q 333 894 417 929 q 188 797 250 858 q 90 654 126 736 q 54 479 54 572 m 133 479 q 163 623 133 556 q 244 740 193 690 q 365 820 296 790 q 511 850 433 850 q 658 820 588 850 q 779 740 728 790 q 860 623 831 690 q 890 479 890 556 q 860 335 890 403 q 779 218 831 268 q 658 140 728 168 q 511 111 588 111 q 365 140 433 111 q 244 218 296 168 q 163 335 193 268 q 133 479 133 403 m 183 479 q 209 354 183 413 q 280 251 235 296 q 384 182 325 207 q 511 157 443 157 q 638 182 579 157 q 744 251 697 207 q 816 354 790 296 q 842 479 842 413 q 816 604 842 546 q 744 707 790 663 q 638 777 697 751 q 511 803 579 803 q 384 777 443 803 q 280 707 325 751 q 209 604 235 663 q 183 479 183 546 m 689 232 l 494 232 q 413 251 454 232 q 340 304 372 271 q 288 381 308 338 q 268 475 268 425 q 281 557 265 514 q 326 635 297 600 q 398 695 356 671 q 494 719 440 719 l 689 719 l 689 585 l 503 585 q 464 576 482 585 q 433 551 446 567 q 410 516 419 535 q 401 475 401 497 q 412 435 401 456 q 437 399 422 415 q 469 374 451 383 q 503 365 486 365 l 689 365 l 689 232 m 490 697 q 431 683 465 697 q 365 642 397 669 q 312 574 333 615 q 290 478 290 533 q 314 378 292 424 q 338 338 324 357 q 375 302 353 319 q 428 272 397 285 q 500 254 460 260 l 668 254 l 667 343 l 500 344 q 428 372 451 351 q 394 417 406 393 q 381 476 382 444 q 389 517 381 494 q 413 560 397 540 q 449 593 428 579 q 494 607 469 607 l 668 607 l 667 697 l 490 697 z "},"[":{"ha":440,"x_min":14,"x_max":426,"o":"m 399 672 l 314 672 l 296 653 l 296 51 l 314 32 l 399 32 l 426 11 l 426 -215 l 399 -236 l 300 -236 q 88 -153 163 -236 q 14 21 14 -71 l 14 683 q 93 862 14 783 q 300 940 172 940 l 399 940 l 426 919 l 426 693 l 399 672 m 378 892 l 289 892 q 128 825 193 890 q 63 686 64 760 l 63 38 q 133 -123 63 -58 q 289 -187 203 -187 l 378 -187 l 378 -17 l 306 -17 q 267 -2 286 -17 q 247 53 247 13 l 247 671 q 266 708 247 694 q 306 721 285 721 l 378 721 l 378 892 z "},"]":{"ha":440,"x_min":14,"x_max":426,"o":"m 14 693 l 14 919 l 42 940 l 140 940 q 347 862 268 940 q 426 683 426 783 l 426 21 q 352 -153 426 -71 q 140 -236 278 -236 l 42 -236 l 14 -215 l 14 11 l 42 32 l 126 32 l 144 51 l 144 653 l 126 672 l 42 672 l 14 693 m 63 721 l 135 721 q 174 708 156 721 q 193 671 193 694 l 193 53 q 174 -2 193 13 q 135 -17 154 -17 l 63 -17 l 63 -187 l 151 -187 q 308 -123 238 -187 q 378 38 378 -58 l 378 686 q 312 825 376 760 q 151 892 247 890 l 63 892 l 63 721 z "},"®":{"ha":1028,"x_min":13,"x_max":1014,"o":"m 13 488 q 52 678 13 589 q 159 835 92 768 q 317 940 226 901 q 513 979 408 979 q 708 940 617 979 q 867 835 800 901 q 974 678 935 768 q 1014 488 1014 589 q 974 297 1014 386 q 867 140 935 207 q 708 35 800 74 q 513 -3 617 -3 q 317 35 408 -3 q 159 140 226 74 q 52 297 92 207 q 13 488 13 386 m 54 479 q 90 306 54 388 q 188 163 126 224 q 333 66 250 101 q 511 31 417 31 q 690 66 606 31 q 836 163 774 101 q 935 306 899 224 q 971 479 971 388 q 935 654 971 572 q 836 797 899 736 q 690 894 774 858 q 511 929 606 929 q 333 894 417 929 q 188 797 250 858 q 90 654 126 736 q 54 479 54 572 m 133 479 q 163 623 133 556 q 244 740 193 690 q 365 820 296 790 q 511 850 433 850 q 658 820 588 850 q 779 740 728 790 q 860 623 831 690 q 890 479 890 556 q 860 335 890 403 q 779 218 831 268 q 658 140 728 168 q 511 111 588 111 q 365 140 433 111 q 244 218 296 168 q 163 335 193 268 q 133 479 133 403 m 183 479 q 209 354 183 413 q 280 251 235 296 q 384 182 325 207 q 511 157 443 157 q 638 182 579 157 q 744 251 697 207 q 816 354 790 296 q 842 479 842 413 q 816 604 842 546 q 744 707 790 663 q 638 777 697 751 q 511 803 579 803 q 384 777 443 803 q 280 707 325 751 q 209 604 235 663 q 183 479 183 546 m 315 678 l 611 678 q 658 668 636 678 q 696 643 679 658 q 722 609 713 628 q 731 574 731 590 l 315 574 l 315 590 l 706 590 l 706 593 q 699 606 706 594 q 681 629 693 617 q 652 651 669 642 q 614 661 635 661 q 467 661 532 661 l 315 661 l 315 678 m 317 525 q 317 527 315 525 q 322 532 319 529 q 328 539 324 535 l 415 539 l 428 525 l 428 307 l 415 292 l 329 293 l 317 304 l 317 415 l 317 525 m 336 311 l 408 311 l 408 521 l 336 521 l 336 311 m 729 539 q 728 531 729 539 q 723 513 726 524 q 712 488 719 501 q 691 462 704 474 q 657 442 678 450 q 607 432 636 433 l 726 314 l 726 292 l 604 292 l 447 453 l 447 525 l 461 539 l 594 539 q 644 539 621 539 q 688 539 668 539 q 718 539 707 539 q 729 539 729 539 m 468 460 l 614 310 l 701 310 l 563 449 l 604 449 q 656 461 636 450 q 686 486 675 472 q 707 521 700 501 l 586 521 q 543 521 564 521 q 505 521 522 521 q 478 521 488 521 q 468 521 468 521 l 468 460 z "},"+":{"ha":863,"x_min":69,"x_max":793,"o":"m 321 775 l 342 803 l 536 803 l 557 775 l 557 546 l 765 546 l 793 525 l 793 331 l 765 310 l 557 310 l 557 107 l 536 79 l 342 79 l 321 107 l 321 310 l 97 310 l 69 331 l 69 525 l 97 546 l 321 546 l 321 775 m 118 358 l 369 358 l 369 128 l 508 128 l 508 358 l 744 358 l 744 497 l 508 497 l 508 754 l 369 754 l 369 497 l 118 497 l 118 358 z "},"(":{"ha":482,"x_min":35,"x_max":447,"o":"m 419 672 l 335 672 l 317 653 l 317 51 l 335 32 l 419 32 l 447 11 l 447 -215 l 419 -236 l 321 -236 q 109 -153 183 -236 q 35 21 35 -71 l 35 683 q 114 862 35 783 q 321 940 193 940 l 419 940 l 447 919 l 447 693 l 419 672 m 399 892 l 310 892 q 149 825 214 890 q 83 686 85 760 l 83 38 q 153 -123 83 -58 q 310 -187 224 -187 l 399 -187 l 399 -17 l 326 -17 q 288 -2 307 -17 q 268 53 268 13 l 268 671 q 287 708 268 694 q 326 721 306 721 l 399 721 l 399 892 z "},")":{"ha":482,"x_min":35,"x_max":447,"o":"m 35 693 l 35 919 l 63 940 l 161 940 q 368 862 289 940 q 447 683 447 783 l 447 21 q 373 -153 447 -71 q 161 -236 299 -236 l 63 -236 l 35 -215 l 35 11 l 63 32 l 147 32 l 165 51 l 165 653 l 147 672 l 63 672 l 35 693 m 83 721 l 156 721 q 195 708 176 721 q 214 671 214 694 l 214 53 q 194 -2 214 13 q 156 -17 175 -17 l 83 -17 l 83 -187 l 172 -187 q 328 -123 258 -187 q 399 38 399 -58 l 399 686 q 333 825 397 760 q 172 892 268 890 l 83 892 l 83 721 z "},"|":{"ha":254,"x_min":35,"x_max":219,"o":"m 35 901 l 63 929 l 192 929 l 219 901 l 219 -272 l 192 -293 l 63 -293 l 35 -272 l 35 901 m 83 -244 l 171 -244 l 171 881 l 83 881 l 83 -244 z "},"$":{"ha":754,"x_min":14,"x_max":740,"o":"m 271 600 l 290 622 l 464 622 l 482 600 l 482 351 l 464 336 l 290 336 l 271 351 l 271 600 m 307 372 l 449 372 l 449 583 l 307 583 l 307 372 m 14 276 l 38 301 l 403 301 q 499 351 451 301 q 547 464 547 400 l 740 464 q 710 315 740 382 q 634 198 681 247 q 529 121 588 149 q 482 104 507 108 l 482 -69 l 464 -87 l 290 -87 l 271 -69 l 271 90 l 38 90 l 14 119 l 14 276 m 307 131 l 307 -47 l 449 -47 l 449 133 l 482 140 q 567 187 532 158 q 629 249 603 215 q 672 318 656 283 q 695 378 688 353 q 703 425 703 404 l 578 425 q 517 318 568 372 q 386 264 465 264 l 49 264 l 49 131 l 271 131 l 307 131 m 271 1022 l 290 1043 l 464 1043 l 482 1022 l 482 867 l 717 867 l 740 842 l 740 679 l 717 651 l 350 651 q 254 605 301 651 q 207 497 207 558 l 14 497 q 44 644 14 576 q 119 762 74 713 q 225 839 165 811 q 271 857 246 850 l 271 1022 m 307 824 l 271 818 q 186 772 222 801 q 124 710 150 743 q 81 642 97 676 q 58 581 65 607 q 51 536 51 556 l 176 536 q 237 639 185 588 q 367 690 289 690 l 704 690 l 704 829 l 449 829 l 449 1006 l 307 1006 l 307 824 z "},"A":{"ha":868,"x_min":14,"x_max":854,"o":"m 256 49 l 390 417 l 482 417 l 525 300 l 685 300 l 474 924 l 410 924 l 79 49 l 256 49 m 14 0 l 379 972 l 506 972 l 750 251 l 492 251 l 451 368 l 422 368 l 288 0 l 14 0 m 382 236 l 756 236 l 854 0 l 653 0 q 505 33 574 -3 q 408 128 436 68 q 382 236 379 188 m 725 188 q 435 188 725 188 q 478 116 454 144 q 542 68 503 88 q 651 49 581 49 l 785 49 l 725 188 z "},"_":{"ha":872,"x_min":14,"x_max":858,"o":"m 831 -206 l 858 -233 l 858 -307 l 831 -335 l 35 -335 l 14 -307 l 14 -233 l 35 -206 l 831 -206 m 63 -254 l 63 -286 l 810 -286 l 810 -254 l 63 -254 z "},"—":{"ha":872,"x_min":14,"x_max":858,"o":"m 831 433 l 858 406 l 858 332 l 831 304 l 35 304 l 14 332 l 14 406 l 35 433 l 831 433 m 63 385 l 63 353 l 810 353 l 810 385 l 63 385 z "},"–":{"ha":719,"x_min":14,"x_max":706,"o":"m 678 433 l 706 406 l 706 332 l 678 304 l 35 304 l 14 332 l 14 406 l 35 433 l 678 433 m 63 385 l 63 353 l 657 353 l 657 385 l 63 385 z "},"^":{"ha":610,"x_min":17,"x_max":596,"o":"m 521 594 l 350 999 l 274 999 l 94 594 l 175 594 l 271 831 l 353 831 l 446 594 l 521 594 m 414 543 l 313 797 l 311 797 l 210 543 l 17 543 l 240 1042 l 388 1042 l 596 543 l 414 543 z "},"<":{"ha":678,"x_min":14,"x_max":664,"o":"m 624 760 l 57 522 l 57 385 l 619 135 l 619 286 l 289 413 l 289 479 l 624 619 l 624 760 m 664 585 l 333 446 l 333 444 l 664 319 l 664 68 l 43 344 l 14 369 l 14 539 l 43 561 l 664 821 l 664 585 z "},">":{"ha":678,"x_min":14,"x_max":664,"o":"m 54 619 l 389 479 l 389 413 l 58 286 l 58 135 l 621 385 l 621 522 l 54 760 l 54 619 m 14 821 l 635 561 l 664 539 l 664 369 l 635 344 l 14 68 l 14 319 l 344 444 l 344 446 l 14 585 l 14 821 z "}}}
